# xmcd
#
# Track frame offsets:
# 150
# 21549
# 46053
# 71366
# 98725
# 125143
# 148466
# 188155
# 209334
# 225402
# 253525
#
# Disc length: 3907 seconds
#
# Revision: 0
# Processed by: cddbd v1.5.2PL0 Copyright (c) Steve Scherf et al.
# Submitted via: Audion 3.0.2 (http://www.panic.com/audion/)
#
DISCID=9f0f410b
DTITLE=Neil Young - Are You Passionate?
DYEAR=1900
DGENRE=
TTITLE0=You're My Girl
TTITLE1=Mr. Disappointment
TTITLE2=Differently
TTITLE3=Quit (Don't Say You Love Me)
TTITLE4=Let's Roll
TTITLE5=Are You Passionate?
TTITLE6=Goin' Home
TTITLE7=When I Hold You in My Arms
TTITLE8=Be With You
TTITLE9=Two Old Friends
TTITLE10=She's A Healer
EXTD=
EXTT0=
EXTT1=
EXTT2=
EXTT3=
EXTT4=
EXTT5=
EXTT6=
EXTT7=
EXTT8=
EXTT9=
EXTT10=
PLAYORDER=
